<?xml version="1.0" standalone="no"?>
<!DOCTYPE svg PUBLIC "-//W3C//DTD SVG 20010904//EN"
 "http://www.w3.org/TR/2001/REC-SVG-20010904/DTD/svg10.dtd">
<svg version="1.0" xmlns="http://www.w3.org/2000/svg"
 width="75.000000pt" height="152.000000pt" viewBox="0 0 75.000000 152.000000"
 preserveAspectRatio="xMidYMid meet">
<metadata>
Created by potrace 1.14, written by Peter Selinger 2001-2017
</metadata>
<g transform="translate(0.000000,152.000000) scale(0.100000,-0.100000)"
fill="#000000" stroke="none">
<path d="M624 1413 l-66 -108 -57 -235 -57 -235 -40 -3 c-32 -2 -43 1 -49 15
-4 10 -25 69 -47 132 -37 106 -40 118 -30 161 12 50 3 109 -19 138 -8 9 -26
32 -42 51 -24 29 -28 41 -24 73 6 44 1 45 -52 18 -146 -74 -189 -301 -70 -368
22 -13 36 -36 58 -92 46 -119 48 -130 19 -130 -14 0 -32 -8 -41 -18 -15 -17
-17 -55 -17 -346 0 -252 3 -334 14 -359 15 -37 76 -94 109 -102 13 -4 114 -5
224 -3 229 3 239 6 281 88 21 43 22 52 22 376 0 308 -1 332 -18 347 -10 10
-30 17 -44 17 -13 0 -27 2 -30 5 -3 3 17 96 44 208 l49 202 -11 129 c-11 131
-14 146 -30 146 -5 0 -39 -48 -76 -107z m-449 -113 c47 -64 59 -107 45 -160
-9 -34 -16 -41 -51 -51 -35 -11 -43 -10 -67 8 -35 26 -48 88 -32 151 11 46 44
102 60 102 4 0 25 -22 45 -50z m484 -67 c0 -10 -22 -103 -47 -208 -44 -175
-49 -190 -71 -193 -18 -3 -22 0 -17 15 3 10 26 105 51 211 41 166 49 192 66
192 12 0 19 -7 18 -17z m21 -772 c0 -194 -4 -319 -11 -339 -20 -58 -37 -62
-255 -62 l-196 0 -34 34 -34 34 0 321 0 321 265 0 265 0 0 -309z"/>
<path d="M302 548 l3 -103 48 -3 c41 -3 47 -6 47 -25 0 -34 -27 -66 -63 -75
-30 -8 -32 -11 -35 -60 l-3 -52 31 0 c43 0 103 33 139 77 39 47 53 113 49 239
l-3 99 -108 3 -108 3 3 -103z"/>
</g>
</svg>
