<svg xmlns="http://www.w3.org/2000/svg" width="21" height="20" viewBox="0 0 21 20"><path fill="#fff" d="M8.39 3.33a4.43 4.43 0 0 0-4.44 4.4.6.6 0 0 0 1.19 0A3.25 3.25 0 0 1 8.39 4.5a.59.59 0 1 0 0-1.17zm12.13 15.34l-6.09-6.05a7.66 7.66 0 0 0-.53-10.36A7.77 7.77 0 0 0 8.39 0C6.31 0 4.35.8 2.88 2.26a7.7 7.7 0 0 0 0 10.94 7.77 7.77 0 0 0 5.51 2.27c1.82 0 3.54-.62 4.93-1.74l6.09 6.04a.79.79 0 0 0 1.11 0c.31-.3.31-.8 0-1.1zm-16.8-6.3a6.53 6.53 0 0 1 0-9.28 6.6 6.6 0 0 1 4.67-1.92A6.6 6.6 0 0 1 15 7.73a6.6 6.6 0 0 1-6.61 6.56 6.6 6.6 0 0 1-4.67-1.92z"/></svg>