<svg xmlns="http://www.w3.org/2000/svg" width="23" height="22" viewBox="0 0 23 22"><path fill="#2d2f31" d="M19.63 21c-1.21 0-2.2-.97-2.2-2.16 0-1.2.99-2.17 2.2-2.17a2.2 2.2 0 0 1 2.21 2.17A2.2 2.2 0 0 1 19.63 21zm0-3.08a.93.93 0 0 0-.93.92c0 .5.42.92.93.92.52 0 .94-.42.94-.92 0-.51-.42-.92-.94-.92zM9.2 21a2.2 2.2 0 0 1-2.21-2.16c0-1.2.99-2.17 2.21-2.17a2.2 2.2 0 0 1 2.21 2.17A2.2 2.2 0 0 1 9.2 21zm0-3.08a.93.93 0 0 0-.94.92c0 .5.42.92.94.92s.94-.42.94-.92c0-.51-.42-.92-.94-.92zm.05-1.99a2.12 2.12 0 0 1-2.08-1.66c-.02-.11-2.18-11.03-2.33-11.89l-.05.02h-3.3a.71.71 0 0 1-.72-.7c0-.4.32-.71.72-.71h3.22c.7 0 1.41.35 1.54 1.13l.28 1.45h15.49a.7.7 0 0 1 .71.77l-.64 6.82c-.03.34-.3.6-.64.64L8.41 13.16l.17.83c.02.09.16.53.67.53h11.88a.7.7 0 0 1 .71.7.7.7 0 0 1-.71.71zm-1.11-4.16l2.03-.21-.2-2.99-2.44.1zm3.46-.36l2.11-.22V8.43l-2.3.09zm3.54-.37l2.12-.22.1-2.53-2.22.08zm3.56-.37l2.02-.21.21-2.31-2.13.08zM7.25 7.27l2.63-.1-.14-2.2H6.8zm4.06-.16l2.4-.1V4.99h-2.54zm3.83-.15l2.28-.09.08-1.9h-2.36zm3.72-.14l2.21-.09.16-1.75h-2.3z"/></svg>