<svg xmlns="http://www.w3.org/2000/svg" width="20" height="17" viewBox="0 0 20 17"><path fill="#151617" d="M3.76 17a2.84 2.84 0 0 1-2.88-2.8V6.8C.88 5.27 2.17 4 3.76 4h2.56V2.62c0-.91.77-1.65 1.71-1.65h4.69c.94 0 1.7.74 1.7 1.65v1.4h2.57a2.85 2.85 0 0 1 2.88 2.8v7.4c0 1.54-1.3 2.79-2.88 2.79zm13.23-1.4c.79 0 1.43-.63 1.43-1.4V6.8c0-.76-.64-1.39-1.43-1.39h-.13V15.6zm-1.57 0V5.4H5.32V15.6zM3.76 5.4c-.8 0-1.44.63-1.44 1.4v7.4c0 .76.64 1.39 1.44 1.39h.12V5.4zm9.22-1.4V2.6a.26.26 0 0 0-.26-.25H8.03c-.15 0-.27.11-.27.25v1.4z"/></svg>