<svg xmlns="http://www.w3.org/2000/svg" width="24" height="24" viewBox="0 0 24 24"><path fill="#151617" d="M12 11.23c1.99 0 3.54-2.37 3.54-4.41 0-1.92-1.39-3.17-3.54-3.17-2.15 0-3.54 1.25-3.54 3.17 0 2.04 1.54 4.41 3.54 4.41zM12 5c.82 0 2.2.23 2.2 1.82 0 1.35-1.04 3.07-2.2 3.07-1.16 0-2.2-1.72-2.2-3.07C9.8 5.23 11.18 5 12 5zm2.82 6.4c-.75-.13-1.41.18-1.71.78l-1.09 2.17-1.09-2.16c-.24-.46-.77-.75-1.39-.75-.15 0-.3.02-.43.05-.37.1-1.51.63-2 1.37-.8 1.2-1.09 2.43-1.51 5.26-.04.33.15.64.46.74.08.02 1.93.6 5.9.6 4 0 5.94-.76 6.02-.8a.68.68 0 0 0 .42-.72 17.4 17.4 0 0 0-1.46-4.96c-.71-1.35-1.55-1.49-2.12-1.58zm-2.86 6.72c-2.54 0-4.16-.25-4.94-.4.36-2.36.64-3.26 1.21-4.12.24-.35 1-.75 1.2-.8.03-.02.07-.02.11-.02.11 0 .19.03.19.01l1.37 2.71c.4.81 1.44.8 1.84 0l1.37-2.72c.04-.09.13-.09.31-.06.42.08.73.13 1.13.88.23.44.86 1.94 1.23 3.98-.77.2-2.43.54-5.02.54zM12 0a12 12 0 1 0 0 24 12 12 0 0 0 0-24zm0 22.66a10.66 10.66 0 1 1 0-21.32 10.66 10.66 0 0 1 0 21.32z"/></svg>