<svg id="MasterCard" xmlns="http://www.w3.org/2000/svg" width="71.062" height="42.188" viewBox="0 0 35.531 21.094"><defs><style>.cls-1 { fill: #f8971f; } .cls-1, .cls-2, .cls-3 { fill-rule: evenodd; } .cls-2 { fill: #ca2028; } .cls-3 { fill: #fff; }</style></defs><path id="Circle_Orange" data-name="Circle Orange" class="cls-1" d="M35.542 10.557a10.64 10.64 0 0 1-21.28 0 10.64 10.64 0 0 1 21.28 0z"/><path id="Circle_Red" data-name="Circle Red" class="cls-2" d="M10.56.008a10.55 10.55 0 1 0 7.227 18.347 9.992 9.992 0 0 0 1.083-1.132h-2.18a10.044 10.044 0 0 1-.796-1.085h3.76a11.42 11.42 0 0 0 .622-1.127h-5a9.725 9.725 0 0 1-.447-1.11h5.886a10.316 10.316 0 0 0 .552-3.343 10.556 10.556 0 0 0-.245-2.258h-6.506c.083-.377.185-.75.3-1.112h5.895a10.835 10.835 0 0 0-.456-1.127h-4.98a10.01 10.01 0 0 1 .608-1.11h3.755a10.166 10.166 0 0 0-.822-1.126h-2.1a10.027 10.027 0 0 1 1.066-1.066 10.655 10.655 0 0 0-7.16-2.75h-.068z"/><path id="MasterCard-2" data-name="MasterCard" class="cls-3" d="M14.454 13.242l.146-.957c-.08 0-.2.033-.293.033-.4 0-.44-.207-.414-.362l.317-1.946h.6l.144-1.055h-.563l.114-.656h-1.132c-.024.02-.672 3.69-.672 4.136a.836.836 0 0 0 .9.95 3 3 0 0 0 .854-.144zm.36-1.822a1.772 1.772 0 0 0 1.96 1.964 2.947 2.947 0 0 0 1.2-.18l.2-1.084a3.527 3.527 0 0 1-1.2.276c-1.217 0-1-.9-1-.9h2.3a8.11 8.11 0 0 0 .145-1.022 1.51 1.51 0 0 0-1.617-1.64c-1.143-.003-1.988 1.21-1.988 2.586zM16.8 9.835c.638 0 .52.71.52.772h-1.257a.815.815 0 0 1 .736-.772zm7.177 3.407l.2-1.224a2.745 2.745 0 0 1-.938.276 1.115 1.115 0 0 1-1.127-1.26c0-1.33.693-2.06 1.466-2.06a2.016 2.016 0 0 1 1.04.325l.18-1.19a4.056 4.056 0 0 0-1.273-.276c-1.31 0-2.58 1.123-2.58 3.237 0 1.4.69 2.326 2.042 2.326a5.273 5.273 0 0 0 .987-.154zM8.223 8.85a3.99 3.99 0 0 0-1.373.245l-.16.966a3.62 3.62 0 0 1 1.232-.2c.42 0 .73.045.73.386a.752.752 0 0 1-.036.285s-.332-.028-.487-.028a1.726 1.726 0 0 0-2.01 1.666 1.07 1.07 0 0 0 1.093 1.21 1.487 1.487 0 0 0 1.162-.517l-.038.43h1l.445-3.095a1.333 1.333 0 0 0-1.56-1.346zm.243 2.516a.987.987 0 0 1-.8 1.072.407.407 0 0 1-.44-.42c0-.308.163-.68 1-.68a.678.678 0 0 1 .24.028zm2.374 1.993a1.46 1.46 0 0 0 1.715-1.428c0-1.4-1.35-1.12-1.35-1.682 0-.278.222-.366.622-.366.16 0 .77.05.77.05l.15-.993a5.43 5.43 0 0 0-1.05-.086 1.446 1.446 0 0 0-1.688 1.465c0 1.287 1.42 1.155 1.42 1.7 0 .36-.4.39-.706.39a3.766 3.766 0 0 1-1-.17l-.154.982a3.708 3.708 0 0 0 1.27.137zm22.518-5.4l-.245 1.5a1.49 1.49 0 0 0-1.093-.584c-1.04 0-1.9 1.24-1.9 2.666a1.588 1.588 0 0 0 1.4 1.823 1.414 1.414 0 0 0 1.056-.468l-.05.4h1.1l.866-5.34zm-.525 2.927a1.247 1.247 0 0 1-.908 1.39c-.41 0-.6-.34-.6-.874 0-.873.4-1.446.89-1.446.408 0 .618.276.618.93zM2.09 13.3l.69-4.03.1 4.03h.78l1.45-4.03-.642 4.03h1.16l.896-5.345h-1.8l-1.115 3.28-.058-3.28H1.906l-.9 5.345H2.1zm17.452.01c.335-1.86.393-3.37 1.178-3.094a4.25 4.25 0 0 1 .426-1.3 1.767 1.767 0 0 0-.22-.01 1.316 1.316 0 0 0-.885.688l.1-.633h-1.054l-.7 4.354h1.157zm7.046-4.46a3.99 3.99 0 0 0-1.373.246l-.16.966a3.614 3.614 0 0 1 1.232-.2c.42 0 .73.044.73.385a.77.77 0 0 1-.036.285s-.33-.03-.485-.03a1.727 1.727 0 0 0-2.012 1.667 1.07 1.07 0 0 0 1.1 1.208 1.48 1.48 0 0 0 1.16-.516l-.036.43h1l.445-3.096a1.335 1.335 0 0 0-1.564-1.347zm.243 2.517a.993.993 0 0 1-.8 1.072.406.406 0 0 1-.438-.422c0-.307.165-.68.994-.68a.68.68 0 0 1 .245.028zm2.223 1.943c.33-1.86.395-3.37 1.18-3.094a4.4 4.4 0 0 1 .42-1.3 1.73 1.73 0 0 0-.217-.01 1.317 1.317 0 0 0-.883.688l.1-.633h-1.055l-.71 4.354h1.163z"/></svg>