<svg id="Layer_1" data-name="Layer 1" xmlns="http://www.w3.org/2000/svg" viewBox="0 0 37 24.4"><defs><style>.cls-1{fill:#1d1d1b;}.cls-2{fill:#164193;}.cls-3{fill:#fff;}</style></defs><title>diners</title><path class="cls-1" d="M2.6 19.1c0-.1.1-.3.6-.3 1.5 0 1.8 1 1.8 2 0 .6-.3 3.2-3 3.2-.4 0-.7-.1-.7-.4a4.5 4.5 0 0 1 .2-.8zm-1.5-.4c.5 0 .7.1.7.4s-.1.5-.1.6l-1 3.7c-.2.6-.3.6-.7.7v.1h2.1c2.5 0 3.9-1.6 3.9-3.3a2.23 2.23 0 0 0-2.5-2.2zM7.7 23.3c-.4.5-.7.9-1.2.9s-.4-.4-.4-.6c0-.4.7-2.5.7-2.8s-.1-.2-.6-.2v-.1c.3 0 1-.2 1.4-.2L6.9 23c0 .1-.1.5-.1.6a.1.1 0 0 0 .1.1c.1 0 .4-.2.7-.7zm-.2-3.9a.51.51 0 0 1 0-1 .5.5 0 0 1 0 1zM11.6 23.3c-.5.6-.7.9-1.2.9s-.4-.3-.4-.5.7-2.3.7-2.6-.1-.3-.2-.3c-.4 0-.9.7-1.2 1.2a5.38 5.38 0 0 0-.8 2.1h-.7a29.06 29.06 0 0 0 .8-3.2c0-.1-.1-.2-.6-.2v-.1l1.4-.3-.6 1.8c.4-.7 1.2-1.9 1.9-1.9a.53.53 0 0 1 .6.6c0 .4-.7 2.5-.7 2.7a.35.35 0 0 0 .1.2c.3.1.5-.2.9-.4zM12.9 22c.3-.7.9-1.4 1.4-1.4.2 0 .3.2.3.4s0 1.1-1.8 1.5zm1.5 1.2c-.5.4-.7.7-1.2.7a.71.71 0 0 1-.8-.7 1.27 1.27 0 0 1 .1-.6h.3c1.4-.2 2.1-.9 2.1-1.6 0-.4-.3-.6-.7-.6a2.87 2.87 0 0 0-2.5 2.6 1.1 1.1 0 0 0 1.2 1.2 3 3 0 0 0 1.8-.9zM15.1 24.1l.7-2.5a2.64 2.64 0 0 0 .1-.7c0-.1 0-.3-.3-.3h-.3v-.1a6.88 6.88 0 0 1 1.3-.2l-.4 1.7.1-.2c.3-.6.9-1.6 1.5-1.6a.37.37 0 0 1 .4.4c0 .5-.3.5-.4.5-.4 0-.3-.3-.5-.3s-.7.9-.8 1.1a11.66 11.66 0 0 0-.8 2.1h-.6zM17.8 22.9c.1.4.2 1.1.9 1.1a.68.68 0 0 0 .7-.7c0-.6-1-1.4-1-2.1 0-.3.1-.9 1-.9.4 0 .6.2.8.2s.2-.1.3-.2h.1l-.2 1.3h-.3a.91.91 0 0 0-.8-1 .47.47 0 0 0-.5.5c0 .6 1 1.3 1 2.1s-.8 1.1-1.3 1.1c-.3 0-.6-.2-.8-.2a.22.22 0 0 0-.2.2h-.1l.2-1.4zM27.5 20.1a1.28 1.28 0 0 0-1.3-1.4c-1.7 0-2.6 2.1-2.6 3.4 0 1.1.5 1.9 1.5 1.9a3.44 3.44 0 0 0 2-1l.2.1a3 3 0 0 1-2.3 1.3 2.12 2.12 0 0 1-2.2-2.3 3.7 3.7 0 0 1 3.5-3.6 7 7 0 0 1 1.3.2c.3 0 .3-.1.4-.2h.2l-.3 1.7h-.4z"/><path class="cls-1" d="M29.1 23.2c-.5.7-.7 1-1.3 1-.4 0-.4-.3-.4-.6s1.2-4.7 1.2-4.9-.4-.2-.6-.2c.5-.1.9-.1 1.3-.2l-1.3 5c0 .1-.1.3-.1.4s0 .2.1.2.4-.3.8-.7zM33.1 23.2c-.6.7-.7 1-1.2 1s-.4-.3-.4-.5.2-.8.4-1.6c-.6.9-1.2 2.1-2 2.1-.3 0-.5-.1-.5-.5s.7-2.5.7-2.8-.2-.3-.5-.3v-.1c.5-.1.8-.1 1.3-.2l-.7 3.2c0 .1 0 .3.2.3.4 0 .9-.8 1.2-1.2a6.67 6.67 0 0 0 .9-2.1h.7l-.7 2.5c0 .2-.1.5-.1.6a.1.1 0 0 0 .1.1c.2 0 .4-.2.6-.5zM36.2 21.5c0 .7-.8 2.5-2 2.5-.4 0-.4-.2-.4-.3 0-.9.8-3 1.8-3 .5 0 .6.5.6.8zm-2.4-2.9c.5 0 .6.1.6.3s-.1.4-.1.6l-1.1 4.3c0 .2.7.5 1.1.5a3.09 3.09 0 0 0 2.7-2.8.9.9 0 0 0-1-1c-.7 0-1.3.8-1.6 1.2a22.51 22.51 0 0 0 .8-3.3 6.75 6.75 0 0 0-1.4.2z"/><path class="cls-2" d="M22.6 15.6a7.8 7.8 0 1 0 0-15.6H14a7.81 7.81 0 0 0-7.8 7.8 7.94 7.94 0 0 0 7.8 7.8z"/><path class="cls-3" d="M6.7 7.9A7.38 7.38 0 0 1 14.1.5a7.51 7.51 0 0 1 7.4 7.4 7.4 7.4 0 0 1-14.8 0z"/><path class="cls-2" d="M12.4 3.6a4.82 4.82 0 0 0-3 4.4 4.42 4.42 0 0 0 3 4.2V3.6zM15.7 12.1a4.51 4.51 0 0 0 3-4.2 4.78 4.78 0 0 0-3-4.4v8.6z"/></svg>