<svg id="Visa" xmlns="http://www.w3.org/2000/svg" width="72.624" height="22.062" viewBox="0 0 36.312 11.031"><defs><style>.cls-1 { fill: #273c8e; } .cls-1, .cls-2 { fill-rule: evenodd; } .cls-2 { fill: #f79e1e; }</style></defs><path id="Visa_Logo" data-name="Visa Logo" class="cls-1" d="M12.79 10.883L14.63.193h2.937l-1.837 10.69h-2.94zM26.39.456A7.742 7.742 0 0 0 23.756.01c-2.9 0-4.95 1.448-4.968 3.525-.017 1.54 1.465 2.395 2.576 2.906 1.14.524 1.532.86 1.523 1.326-.007.72-.91 1.044-1.76 1.044a6.257 6.257 0 0 1-2.766-.56l-.372-.168-.416 2.39a9.267 9.267 0 0 0 3.27.57c3.092 0 5.1-1.43 5.124-3.65.008-1.218-.777-2.14-2.47-2.906-1.025-.5-1.658-.825-1.65-1.324 0-.444.533-.92 1.686-.92a5.49 5.49 0 0 1 2.2.41l.264.123.4-2.32M33.93.208H31.66a1.468 1.468 0 0 0-1.537.882l-4.365 9.8h3.076s.5-1.318.62-1.61l3.764.006c.088.376.36 1.6.36 1.6H36.3L33.92.204m-3.62 6.89l1.17-2.99c-.018.028.24-.62.39-1.02l.194.918s.57 2.553.683 3.093H30.3zM10.33.205L7.45 7.49 7.14 6.01a8.36 8.36 0 0 0-4.066-4.48l2.626 9.35h3.112l4.63-10.67h-3.11"/><path id="Yellow_Swoosh" data-name="Yellow Swoosh" class="cls-2" d="M4.78.194H.042L.002.42C3.69 1.3 6.126 3.443 7.14 6.008L6.11 1.1A1.23 1.23 0 0 0 4.78.194"/></svg>