<svg id="American_Express" data-name="American Express" xmlns="http://www.w3.org/2000/svg" width="99.82" height="61.688" viewBox="0 0 49.91 30.844"><defs><style>.cls-1, .cls-3, .cls-4 { fill: #fff; } .cls-1 { stroke: #eee; stroke-width: 1px; } .cls-1, .cls-2, .cls-3, .cls-4 { fill-rule: evenodd; } .cls-2 { fill: url(#radial-gradient); } .cls-4 { opacity: 0.5; }</style><radialGradient id="radial-gradient" cx="1076.41" cy="298.078" r="14.922" gradientUnits="userSpaceOnUse"><stop offset="0" stop-color="#9dd2f2"/><stop offset=".785" stop-color="#20abe2"/><stop offset=".96" stop-color="#1fa3dd"/><stop offset="2" stop-color="#3078ba"/></radialGradient></defs><path id="base" class="cls-1" d="M3.5.5h42a3 3 0 0 1 3 3v23.845a3 3 0 0 1-3 3h-42a3 3 0 0 1-3-3V3.5a3 3 0 0 1 3-3z"/><path id="Base_Square" data-name="Base Square" class="cls-2" d="M49.9.646h-48v29.862h48V.646z"/><path id="American_Express-2" data-name="American Express" class="cls-3" d="M6.05 11.762l-.86-2.07-.86 2.07m20.6-.822a1.162 1.162 0 0 1-.62.107h-1.52V9.9h1.54a1.218 1.218 0 0 1 .59.094.475.475 0 0 1 .27.454.536.536 0 0 1-.26.492zm10.85.822l-.86-2.07-.87 2.07h1.73zm-20.23 2.23h-1.28v-4.05l-1.82 4.05h-1.1l-1.82-4.06v4.06H6.98l-.48-1.15H3.89l-.48 1.15H2.05L4.29 8.82h1.86l2.13 4.9v-4.9h2.05l1.63 3.508 1.5-3.508h2.09v5.172zm5.12 0h-4.19V8.82h4.19V9.9h-2.93v.932h2.86v1.062h-2.86v1.034h2.93v1.067zm5.9-3.78a1.464 1.464 0 0 1-.88 1.378 1.575 1.575 0 0 1 .62.436 1.523 1.523 0 0 1 .21.95v1.016h-1.27v-.65a1.536 1.536 0 0 0-.2-1.01 1.27 1.27 0 0 0-.91-.22h-1.35v1.88h-1.26V8.82h2.89a2.92 2.92 0 0 1 1.51.244 1.21 1.21 0 0 1 .64 1.147zm2 3.78h-1.28V8.82h1.28v5.172zm14.82 0h-1.77l-2.38-3.887v3.887H36.7l-.49-1.15h-2.6l-.48 1.15h-1.46a2.687 2.687 0 0 1-1.82-.567 2.6 2.6 0 0 1-.67-1.98 2.72 2.72 0 0 1 .68-2.02 2.565 2.565 0 0 1 1.9-.6h1.22v1.104h-1.19a1.187 1.187 0 0 0-.96.307 1.657 1.657 0 0 0-.37 1.17 1.75 1.75 0 0 0 .35 1.22 1.213 1.213 0 0 0 .87.265h.56l1.77-4.068h1.88L38 13.718V8.82h1.91l2.2 3.6v-3.6h1.28v5.172zm-41.36 1.02h2.14l.49-1.152h1.07l.49 1.15h4.21v-.876l.37.88h2.18l.38-.893v.89h10.46v-1.884h.2c.14 0 .18.016.18.244v1.64h5.41v-.436a4.454 4.454 0 0 0 2.01.437h2.28l.49-1.15h1.08l.48 1.15h4.38v-1.088l.66 1.09h3.52V7.79h-3.48v.854l-.49-.854h-3.56v.854l-.45-.854h-4.82a4.348 4.348 0 0 0-2.1.425V7.79h-3.32v.425a2.056 2.056 0 0 0-1.42-.425H12.72l-.82 1.862-.83-1.862H7.24v.854l-.43-.854H3.55l-1.52 3.432v3.79zm44.56 3.82h-2.28a.918.918 0 0 0-.52.09.4.4 0 0 0-.17.372.384.384 0 0 0 .27.386 1.39 1.39 0 0 0 .48.062l.68.018a1.99 1.99 0 0 1 1.42.415 1.12 1.12 0 0 1 .12.13m0 1.94a1.985 1.985 0 0 1-1.71.66h-2.41V21.8h2.41a.716.716 0 0 0 .5-.13.466.466 0 0 0 0-.686.7.7 0 0 0-.44-.11c-1.18-.042-2.65.04-2.65-1.6a1.553 1.553 0 0 1 1.8-1.538h2.5V16.7h-2.32a2.637 2.637 0 0 0-1.57.426V16.7h-3.43a2.406 2.406 0 0 0-1.5.426V16.7h-6.11v.426a3.364 3.364 0 0 0-1.7-.426h-4.03v.426a2.9 2.9 0 0 0-1.77-.426h-4.52l-1.02 1.105-.98-1.105h-6.75v7.226h6.62l1.07-1.123 1 1.123h4.09V22.23h.4a4.383 4.383 0 0 0 1.74-.256v1.95h3.37v-1.885h.16c.21 0 .23.01.23.213v1.67H39.8a2.985 2.985 0 0 0 1.71-.46v.46h3.24a4.46 4.46 0 0 0 1.84-.33v-1.347zm-5-2.07a1.443 1.443 0 0 1 .38 1.1c0 1.112-.71 1.63-1.97 1.63h-2.44V21.8h2.43a.78.78 0 0 0 .51-.13.435.435 0 0 0 .14-.34.442.442 0 0 0-.15-.346.68.68 0 0 0-.44-.11c-1.17-.042-2.64.04-2.64-1.6a1.544 1.544 0 0 1 1.79-1.538h2.51v1.1h-2.3a.864.864 0 0 0-.5.09.437.437 0 0 0 .09.76 1.444 1.444 0 0 0 .48.06l.68.02a2.01 2.01 0 0 1 1.43.41zm-11.3-.32a1.172 1.172 0 0 1-.62.108h-1.52V18.8h1.54a1.245 1.245 0 0 1 .6.1.5.5 0 0 1 .26.464.564.564 0 0 1-.26.492zm.76.645a1.375 1.375 0 0 1 .61.435 1.456 1.456 0 0 1 .2.948V22.9h-1.25v-.646a1.55 1.55 0 0 0-.2-1.016 1.27 1.27 0 0 0-.92-.225h-1.34V22.9h-1.26v-5.173h2.89a3.13 3.13 0 0 1 1.51.24 1.22 1.22 0 0 1 .64 1.152 1.45 1.45 0 0 1-.88 1.38zm1.58-2.77h4.18v1.07h-2.94v.944h2.87V20.8h-2.87v1.026l2.94.008v1.07h-4.18V17.73zm-8.45 2.387h-1.62V18.8h1.64a.64.64 0 0 1 .76.638.67.67 0 0 1-.78.68zm-2.87 2.314l-1.92-2.1 1.92-2.04v4.145zm-4.96-.6h-3.08V20.8h2.75v-1.058h-2.75V18.8h3.14l1.37 1.51zm9.96-2.39c0 1.437-1.09 1.735-2.19 1.735h-1.56V22.9h-2.43l-1.54-1.712-1.61 1.712h-4.96v-5.173h5.04l1.54 1.693 1.6-1.693h4c.99.004 2.11.273 2.11 1.71z"/><path id="American_Express-3" data-name="American Express" class="cls-4" d="M6.05 11.762l-.86-2.07-.86 2.07m20.6-.822a1.162 1.162 0 0 1-.62.107h-1.52V9.9h1.54a1.218 1.218 0 0 1 .59.094.475.475 0 0 1 .27.454.536.536 0 0 1-.26.492zm10.85.822l-.86-2.07-.87 2.07h1.73zm-20.23 2.23h-1.28v-4.05l-1.82 4.05h-1.1l-1.82-4.06v4.06H6.98l-.48-1.15H3.89l-.48 1.15H2.05L4.29 8.82h1.86l2.13 4.9v-4.9h2.05l1.63 3.508 1.5-3.508h2.09v5.172zm5.12 0h-4.19V8.82h4.19V9.9h-2.93v.932h2.86v1.062h-2.86v1.034h2.93v1.067zm5.9-3.78a1.464 1.464 0 0 1-.88 1.378 1.575 1.575 0 0 1 .62.436 1.523 1.523 0 0 1 .21.95v1.016h-1.27v-.65a1.536 1.536 0 0 0-.2-1.01 1.27 1.27 0 0 0-.91-.22h-1.35v1.88h-1.26V8.82h2.89a2.92 2.92 0 0 1 1.51.244 1.21 1.21 0 0 1 .64 1.147zm2 3.78h-1.28V8.82h1.28v5.172zm14.82 0h-1.77l-2.38-3.887v3.887H36.7l-.49-1.15h-2.6l-.48 1.15h-1.46a2.687 2.687 0 0 1-1.82-.567 2.6 2.6 0 0 1-.67-1.98 2.72 2.72 0 0 1 .68-2.02 2.565 2.565 0 0 1 1.9-.6h1.22v1.104h-1.19a1.187 1.187 0 0 0-.96.307 1.657 1.657 0 0 0-.37 1.17 1.75 1.75 0 0 0 .35 1.22 1.213 1.213 0 0 0 .87.265h.56l1.77-4.068h1.88L38 13.718V8.82h1.91l2.2 3.6v-3.6h1.28v5.172zm-41.36 1.02h2.14l.49-1.152h1.07l.49 1.15h4.21v-.876l.37.88h2.18l.38-.893v.89h10.46v-1.884h.2c.14 0 .18.016.18.244v1.64h5.41v-.436a4.454 4.454 0 0 0 2.01.437h2.28l.49-1.15h1.08l.48 1.15h4.38v-1.088l.66 1.09h3.52V7.79h-3.48v.854l-.49-.854h-3.56v.854l-.45-.854h-4.82a4.348 4.348 0 0 0-2.1.425V7.79h-3.32v.425a2.056 2.056 0 0 0-1.42-.425H12.72l-.82 1.862-.83-1.862H7.24v.854l-.43-.854H3.55l-1.52 3.432v3.79zm44.56 3.82h-2.28a.918.918 0 0 0-.52.09.4.4 0 0 0-.17.372.384.384 0 0 0 .27.386 1.39 1.39 0 0 0 .48.062l.68.018a1.99 1.99 0 0 1 1.42.415 1.12 1.12 0 0 1 .12.13m0 1.94a1.985 1.985 0 0 1-1.71.66h-2.41V21.8h2.41a.716.716 0 0 0 .5-.13.466.466 0 0 0 0-.686.7.7 0 0 0-.44-.11c-1.18-.042-2.65.04-2.65-1.6a1.553 1.553 0 0 1 1.8-1.538h2.5V16.7h-2.32a2.637 2.637 0 0 0-1.57.426V16.7h-3.43a2.406 2.406 0 0 0-1.5.426V16.7h-6.11v.426a3.364 3.364 0 0 0-1.7-.426h-4.03v.426a2.9 2.9 0 0 0-1.77-.426h-4.52l-1.02 1.105-.98-1.105h-6.75v7.226h6.62l1.07-1.123 1 1.123h4.09V22.23h.4a4.383 4.383 0 0 0 1.74-.256v1.95h3.37v-1.885h.16c.21 0 .23.01.23.213v1.67H39.8a2.985 2.985 0 0 0 1.71-.46v.46h3.24a4.46 4.46 0 0 0 1.84-.33v-1.347zm-5-2.07a1.443 1.443 0 0 1 .38 1.1c0 1.112-.71 1.63-1.97 1.63h-2.44V21.8h2.43a.78.78 0 0 0 .51-.13.435.435 0 0 0 .14-.34.442.442 0 0 0-.15-.346.68.68 0 0 0-.44-.11c-1.17-.042-2.64.04-2.64-1.6a1.544 1.544 0 0 1 1.79-1.538h2.51v1.1h-2.3a.864.864 0 0 0-.5.09.437.437 0 0 0 .09.76 1.444 1.444 0 0 0 .48.06l.68.02a2.01 2.01 0 0 1 1.43.41zm-11.3-.32a1.172 1.172 0 0 1-.62.108h-1.52V18.8h1.54a1.245 1.245 0 0 1 .6.1.5.5 0 0 1 .26.464.564.564 0 0 1-.26.492zm.76.645a1.375 1.375 0 0 1 .61.435 1.456 1.456 0 0 1 .2.948V22.9h-1.25v-.646a1.55 1.55 0 0 0-.2-1.016 1.27 1.27 0 0 0-.92-.225h-1.34V22.9h-1.26v-5.173h2.89a3.13 3.13 0 0 1 1.51.24 1.22 1.22 0 0 1 .64 1.152 1.45 1.45 0 0 1-.88 1.38zm1.58-2.77h4.18v1.07h-2.94v.944h2.87V20.8h-2.87v1.026l2.94.008v1.07h-4.18V17.73zm-8.45 2.387h-1.62V18.8h1.64a.64.64 0 0 1 .76.638.67.67 0 0 1-.78.68zm-2.87 2.314l-1.92-2.1 1.92-2.04v4.145zm-4.96-.6h-3.08V20.8h2.75v-1.058h-2.75V18.8h3.14l1.37 1.51zm9.96-2.39c0 1.437-1.09 1.735-2.19 1.735h-1.56V22.9h-2.43l-1.54-1.712-1.61 1.712h-4.96v-5.173h5.04l1.54 1.693 1.6-1.693h4c.99.004 2.11.273 2.11 1.71z"/></svg>