<svg id="Discover" xmlns="http://www.w3.org/2000/svg" width="98" height="61.688" viewBox="0 0 49 30.844"><defs><style>.cls-1 { fill: #fff; stroke: #eee; stroke-width: 1px; } .cls-1, .cls-2, .cls-3 { fill-rule: evenodd; } .cls-2 { fill: #f38120; }</style></defs><path id="base" class="cls-1" d="M3.5.5h42a3 3 0 0 1 3 3v23.845a3 3 0 0 1-3 3h-42a3 3 0 0 1-3-3V3.5a3 3 0 0 1 3-3z"/><path id="O_and_Corner" data-name="O and Corner" class="cls-2" d="M47.02 18.45S35.3 26.54 13.83 30.157h33.19v-11.71zm-23.1-5.368a3.193 3.193 0 0 0-.49 1.7 3.2 3.2 0 0 1 .49-1.7m5.67 0a3.2 3.2 0 0 1 .49 1.7 3.193 3.193 0 0 0-.49-1.7m-2.83-1.55a3.354 3.354 0 0 0-2.84 1.55 3.2 3.2 0 0 0-.49 1.7 3.326 3.326 0 0 0 6.65 0 3.2 3.2 0 0 0-.49-1.7 3.324 3.324 0 0 0-2.83-1.55"/><path id="Disc_ver" data-name="Disc ver" class="cls-3" d="M7.91 11.7H6.12v6.116H7.9a3.326 3.326 0 0 0 2.23-.7 3.046 3.046 0 0 0 1.13-2.347 3.08 3.08 0 0 0-3.35-3.07zm1.42 4.6a2.348 2.348 0 0 1-1.67.482h-.33V12.74h.33a2.3 2.3 0 0 1 1.67.5 2.036 2.036 0 0 1 .67 1.52 2.08 2.08 0 0 1-.67 1.54zm2.49 1.518h1.22V11.7h-1.22v6.116zm4.2-3.766c-.73-.266-.95-.44-.95-.77a.8.8 0 0 1 .92-.68 1.276 1.276 0 0 1 .98.5l.64-.817a2.78 2.78 0 0 0-1.84-.68 1.82 1.82 0 0 0-1.95 1.755c0 .84.39 1.272 1.53 1.677a4.75 4.75 0 0 1 .85.348.72.72 0 0 1 .37.632.883.883 0 0 1-.95.862 1.43 1.43 0 0 1-1.33-.818l-.79.742a2.44 2.44 0 0 0 2.16 1.166 2 2 0 0 0 2.16-2.008c0-.977-.41-1.415-1.8-1.91zm2.19.714a3.2 3.2 0 0 0 3.29 3.19 3.484 3.484 0 0 0 1.54-.355v-1.4a1.99 1.99 0 0 1-1.48.672 2.02 2.02 0 0 1-2.1-2.11 2.056 2.056 0 0 1 2.04-2.1 2.09 2.09 0 0 1 1.54.688v-1.4a3.2 3.2 0 0 0-1.51-.378 3.252 3.252 0 0 0-3.32 3.193zm14.49 1.048l-1.67-4.112H29.7l2.66 6.273h.65l2.7-6.273h-1.32l-1.69 4.112m3.56 2h3.46v-1.036h-2.24V15.13h2.16V14.1h-2.16v-1.36h2.24V11.7h-3.46v6.116zm8.29-4.307c0-1.147-.81-1.81-2.21-1.81h-1.81v6.117h1.22V15.36h.15l1.69 2.454h1.5l-1.96-2.573a1.64 1.64 0 0 0 1.42-1.73zm-2.45 1.01h-.35v-1.852h.37a.958.958 0 0 1 1.18.9.98.98 0 0 1-1.2.955z"/></svg>