<svg id="Layer_1" data-name="Layer 1" xmlns="http://www.w3.org/2000/svg" viewBox="0 0 509.42 221.74"><defs><style>.cls-1{fill:#981b1e;}.cls-1,.cls-2{fill-rule:evenodd;}.cls-2{fill:#fff;}</style></defs><path id="fundo" class="cls-1" d="M139.85 0h-52.8c-23.33 1.1-42.4 10.5-47.9 29.87-2.87 10.11-4.45 21.2-6.7 31.68-11.41 53.26-21.53 108-32.45 160.19h411c31.78 0 53.6-6.71 59.49-31.94 2.74-11.72 5.36-25 8-37.86 10.22-50.19 20.44-100.37 30.91-152z"/><path id="hipercard" class="cls-2" d="M135.71 78.81c2.21-1.52 5.05-8.45 1.8-11.33-1-.91-2.75-1.18-5.15-.77a6.23 6.23 0 0 0-4.38 2.32c-1.4 1.91-2.68 7.65-.52 9.79s6.86.96 8.25-.01zm-31.4-11.33c-1.58 10.27-3.36 20.33-5.15 30.39-11.47.12-23.19.57-34.25-.26 2.09-9.84 3.59-20.28 5.67-30.13H58.21c-4.43 25.11-8.45 50.61-13.39 75.2h12.62c2-12.61 3.83-25.36 6.44-37.34 10.76-.27 23.66-.73 34 .26-2.17 12.5-4.72 24.5-6.71 37.08h12.62c4.05-25.48 8.33-50.74 13.39-75.2zM282.78 89.1c-9.82-4-17.54 2.74-21.12 9 .81-2.79 1.15-6.06 1.8-9h-9.75c-2.39 18.55-5.92 36-9.27 53.57h11.08c1.55-10.44 2.22-24.52 5.67-34.51 2.75-8 10-14.78 20.35-11.07.1-2.94.94-5.19 1.24-7.99zm6.18 41c-1-2.64-1.29-7-1-10.3.57-7.44 3.28-16.5 7.47-20.6 5.78-5.66 17.18-4.72 26.27-1.55.28-3.07.9-5.8 1.29-8.76-14.91-2.44-29.07-.92-36.57 7-7.35 7.71-12.16 25.42-8.76 36.57 4 13 21.85 13.75 36.31 8.76.64-2.62 1-5.54 1.54-8.24-7.92 4.02-23.03 6.12-26.55-2.88zm124.39-40.69c-9.79-4.89-17.94 3.32-21.12 8.24.91-2.53 1-5.91 1.8-8.5h-9.79q-4 27.59-9.53 53.57h11.33c.07-7.1 1.47-12.35 2.58-19.32 2.37-14.87 5.84-31.17 23.18-26.27.59-2.55.83-5.4 1.56-7.76zm-289-.26c-.3 0-.28.41-.26.77-2.44 18.25-5.74 35.64-9.27 52.8h11.07c2.66-18.37 5.71-36.36 9.53-53.57zm97.36-1.05c-8 .62-14.77 2.92-19.57 8-5.9 6.21-10.67 19.94-9.27 32.45 2 17.84 24.21 17.2 42 12.88.3-3.13 1.06-5.81 1.55-8.76-7.32 2.74-20 6.56-27.56 1.8-5.68-3.59-5.72-12.69-3.86-20.6 11.94-.38 24.35-.31 36.31 0 .76-5.61 2.93-11.72 1-17.26-2.47-7.34-11.44-9.23-20.6-8.51zm10.56 19.57h-26a15.35 15.35 0 0 1 14.68-12.88c8-.32 13.76 2.92 11.35 12.87zm-52.5-18.57c-9.37-3.52-20.8.68-25.75 4.68 0 .18-.12.2-.26.21l.26-.21c.08-1.72.69-2.92.77-4.64h-9.53c-4 26.42-8.68 52.1-13.65 77.52h11.1c1.6-9.9 2.66-20.34 4.89-29.62 2.53 9.75 19 7.89 26 4.12 14.36-7.8 25.45-44.8 6.17-52.06zm-8.76 43.52c-5.92 6.28-20.49 6.18-21.63-4.38-.5-4.59 1.21-9.41 2.06-14.16s1.47-9.43 2.32-13.65c5.84-7.13 23-8 24.72 3.86 1.51 10.31-2.56 23.15-7.47 28.35zm283.55-66.7c-.95 8.32-2.22 16.33-3.86 24-27.16-8.6-43.82 11.39-43.53 36.06.06 4.77.88 9.5 3.86 12.88 5.14 5.82 19.87 7.21 27.3 2.32a19.25 19.25 0 0 0 3.86-3.86c.72-.9 1.85-3.25 2.06-2.58a57.51 57.51 0 0 0-1 8h10c1.94-27.77 7.92-51.49 12.36-76.75zm-24.72 70.82c-7.46.16-11.16-4.45-11.33-12.1-.3-13.4 5.58-28.28 17.51-29.62 5.56-.62 9.58.67 13.65 2.06-3.74 15.02-2.39 39.3-19.83 39.68zM334.29 89.1c-.54 3.06-1.38 5.83-2.06 8.76 6.54-1.64 26.88-6.66 28.84 2.06.65 2.9-.47 6-1.29 8.24-18.4-1.74-33.4 1.31-37.34 14.42-2.64 8.78.3 17.42 5.92 19.83 10.84 4.64 24-.68 28.59-8a33.65 33.65 0 0 0-.77 8.24h9.53c.1-9.13 1.43-16.51 2.83-24.72 1.2-7 3.45-13.92 3.09-20.09-.81-14.11-24.23-9.11-37.34-8.74zm18 43.27c-5.71 5.59-21.73 7.17-20.09-6.18 1.39-11.09 13.51-13.44 26.51-11.84-.93 6.07-2 13.75-6.39 18.03z"/></svg>