<svg xmlns="http://www.w3.org/2000/svg" width="59.06" height="41.312" viewBox="0 0 29.53 20.656"><defs><style>.cls-1 { fill: #151617; fill-rule: evenodd; }</style></defs><path id="boleto" class="cls-1" d="M23.3-.012h3.22v15.874H23.3V-.012zm-7.03 0h1.21v15.874h-1.21V-.012zm12.05 0h1.21v15.874h-1.21V-.012zm-8.24 0h1.61v15.874h-1.61V-.012zm-8.03 0h1.61v15.874h-1.61V-.012zM0-.012h1.61v15.874H0V-.012zm4.62 0h.4v15.874h-.4V-.012zm5.78 0h.4v15.874h-.4V-.012zm8.18 0h.4v15.874h-.4V-.012zm3.77 0h.2v15.874h-.2V-.012zm-19.69 0h.81v15.874h-.81V-.012zm3.72 0h.8v15.874h-.8V-.012zm2.05 0h.81v15.874h-.81V-.012zm18.63 0h.81v15.874h-.81V-.012zm-12.45 0h.8v15.874h-.8V-.012zM3.35 20.612h1.26a1.5 1.5 0 0 0 .91-.252.833.833 0 0 0 .33-.7.864.864 0 0 0-.14-.508.762.762 0 0 0-.46-.26v-.03a.557.557 0 0 0 .37-.227.75.75 0 0 0 .14-.484.678.678 0 0 0-.32-.632 2.062 2.062 0 0 0-1.04-.2H3.35v3.29zm.72-2.718h.37a.933.933 0 0 1 .45.083.3.3 0 0 1 .14.27.317.317 0 0 1-.13.29.792.792 0 0 1-.42.09h-.41v-.733zm.44 1.285q.6 0 .6.41a.412.412 0 0 1-.14.336.72.72 0 0 1-.44.11h-.46v-.857h.44zm5.67-1.472a1.845 1.845 0 0 0-2.38 0 1.732 1.732 0 0 0-.42 1.255 1.753 1.753 0 0 0 .42 1.26 1.836 1.836 0 0 0 2.38 0 2.127 2.127 0 0 0 0-2.515zm-1.83.424a.756.756 0 0 1 .64-.28c.57 0 .85.37.85 1.11s-.28 1.11-.85 1.11a.745.745 0 0 1-.64-.28 1.678 1.678 0 0 1 0-1.66zm6.23 2.48v-.576h-1.36v-2.713h-.72v3.29h2.08zm3.26-.576h-1.23v-.848h1.14v-.57h-1.14v-.724h1.23v-.57H15.9v3.288h1.94v-.576zm2.75-2.132h.92v-.58h-2.55v.58h.92v2.708h.71v-2.708zm4.74-.2a1.54 1.54 0 0 0-1.18-.437 1.6 1.6 0 0 0-1.2.433 1.773 1.773 0 0 0-.41 1.255 1.8 1.8 0 0 0 .41 1.26 1.836 1.836 0 0 0 2.38 0 2.127 2.127 0 0 0 0-2.507zm-1.83.424a.776.776 0 0 1 .65-.28 1.148 1.148 0 0 1-.01 2.22.758.758 0 0 1-.64-.28 1.747 1.747 0 0 1 0-1.656z"/></svg>