<svg id="Camada_1" data-name="Camada 1" xmlns="http://www.w3.org/2000/svg" viewBox="0 0 349.28 349.28"><defs><style>.cls-1{fill:#050013;stroke:#231f20;stroke-miterlimit:22.93;stroke-width:0.57px;}.cls-1,.cls-2,.cls-3,.cls-4,.cls-5{fill-rule:evenodd;}.cls-2{fill:#fff;}.cls-3{fill:#009dd7;}.cls-4{fill:#fff200;}.cls-5{fill:#e33206;}</style></defs><title>elo</title><path class="cls-1" d="M174.64.28A174.36 174.36 0 1 1 .28 174.64 174.36 174.36 0 0 1 174.64.28z"/><path class="cls-2" d="M99.73 127.91a53.6 53.6 0 0 1 52.09 41l-21.6 9.44-22.1 9.65-53 23.17a53.59 53.59 0 0 1 44.6-83.28zm23 33.32L69.2 184.29c-.08-.92-.13-1.86-.13-2.8a30.65 30.65 0 0 1 53.65-20.27zM137.17 219.82c-19.19 18.21-44.57 20-66.87 6.46l12.6-19.16q19 11.38 38.24-3.7l16 16.4zM159 206.56l-.14-101.33H178v98.59a2 2 0 0 0 1.36 2.26l16.7 6.49-7.52 19.56-19.54-8.26c-7.42-3.14-10-7.69-10-17.31z"/><path class="cls-3" d="M231.27 204.86a30.56 30.56 0 0 1-2.3-46.32l-12.4-20.1a53.89 53.89 0 0 0 3 86.75z"/><path class="cls-4" d="M239.67 151.93a30.6 30.6 0 0 1 39 18l23.76-2a53.91 53.91 0 0 0-72.64-37.2z"/><path class="cls-5" d="M280.56 182.19a30.59 30.59 0 0 1-38 28.18L233.25 232a53.91 53.91 0 0 0 70.62-49z"/></svg>